<svg xmlns="http://www.w3.org/2000/svg" xmlns:xlink="http://www.w3.org/1999/xlink" width="219" height="50.7" viewBox="0 0 219 50.7">
  <defs>
    <clipPath id="clip-PC_M32_2_Brand_White">
      <rect width="219" height="50.7"/>
    </clipPath>
  </defs>
  <g id="PC_M32_2_Brand_White" data-name="PC M32 2 Brand White" clip-path="url(#clip-PC_M32_2_Brand_White)">
    <g id="PCM32MB3brand_white_rev" transform="translate(0 -0.7)">
      <g id="Market_32" data-name="Market 32">
        <g id="Group_1" data-name="Group 1">
          <path id="Path_1" data-name="Path 1" d="M218.4,28.7a1.5,1.5,0,0,1-1.6,1.5,1.561,1.561,0,0,1-1.6-1.5,1.5,1.5,0,0,1,1.6-1.5A1.561,1.561,0,0,1,218.4,28.7Zm-2.8,0a1.2,1.2,0,1,0,1.2-1.2A1.155,1.155,0,0,0,215.6,28.7Zm1,.8h-.4V28h.6c.3,0,.4,0,.5.1a.367.367,0,0,1,.1.3c0,.2-.1.3-.3.4h0a1.38,1.38,0,0,1,.3.4c0,.2.1.3.1.4h-.4c0-.1-.1-.2-.1-.4s-.1-.2-.3-.2h-.2l.1.5Zm0-.9h.2c.2,0,.4-.1.4-.2s-.1-.2-.3-.2h-.2l-.1.4Z" fill="#fff"/>
        </g>
        <g id="Group_3" data-name="Group 3">
          <g id="Group_2" data-name="Group 2">
            <path id="Path_2" data-name="Path 2" d="M145.1,38.6c0-.6-.5-1-1.4-1.1h0c.9-.2,1.2-.6,1.2-1.1,0-.6-.4-1.1-1.8-1.1h-2.2v.5h.7v3.6h-.7v.5h2.3C144.7,40,145.1,39.3,145.1,38.6Zm-2.6-2.8h.5c.7,0,.9.2.9.7s-.2.8-.9.8h-.5V35.8Zm0,3.6V37.7h.5c.8,0,1.1.3,1.1.8,0,.6-.3.9-1.1.9Z" fill="#fff"/>
            <path id="Path_3" data-name="Path 3" d="M147.6,35.3h-2.2v.5h.6l1.3,2.2v1.4h-.7V40h2.3v-.6h-.7V38l1.4-2.2h.5v-.5h-1.7v.5h.6l-1,1.7-1-1.7h.6Z" fill="#fff"/>
            <path id="Path_4" data-name="Path 4" d="M156.1,36.7c0-.8-.5-1.4-2-1.4H152v.5h.7v3.6H152V40h2.4v-.5h-.8V38.2h.6C155.7,38.1,156.1,37.4,156.1,36.7Zm-2,.9h-.5V35.8h.5c.8,0,1,.4,1,.9S154.9,37.6,154.1,37.6Z" fill="#fff"/>
            <path id="Path_5" data-name="Path 5" d="M161.5,39.2l-.4-.1c-.1.3-.2.4-.3.4s-.2-.1-.2-.3v-.4c0-.5-.3-.9-1.1-1v-.1c1-.1,1.3-.6,1.3-1.1,0-.6-.4-1.2-1.8-1.2h-2.4v.5h.7v3.6h-.7V40H159v-.5h-.7V38h.7c.6,0,.7.2.7.7v.4a.871.871,0,0,0,.9,1A1.061,1.061,0,0,0,161.5,39.2ZM159,37.4h-.7V35.8h.8c.6,0,.8.3.8.8S159.6,37.4,159,37.4Z" fill="#fff"/>
            <path id="Path_6" data-name="Path 6" d="M161.9,39.4V40h2.4v-.6h-.8V35.8h.8v-.5h-2.4v.5h.7v3.6Z" fill="#fff"/>
            <path id="Path_7" data-name="Path 7" d="M167.2,35.7c.6,0,1,.5,1.4,1.4h.5V35.3h-.5l-.1.5a1.728,1.728,0,0,0-1.3-.5,2.362,2.362,0,0,0-2.2,2.5,2.232,2.232,0,0,0,2.3,2.4,2.022,2.022,0,0,0,2.1-2h-.6a1.43,1.43,0,0,1-1.4,1.4c-.9,0-1.4-.7-1.4-1.9C165.9,36.2,166.4,35.7,167.2,35.7Z" fill="#fff"/>
            <path id="Path_8" data-name="Path 8" d="M172.8,35.8c.6,0,.6.2.9,1.1h.5V35.3h-4.3v.5h.7v3.6h-.7V40h4.3V38.3h-.5c-.2,1-.3,1.2-1,1.2h-1.3V37.9h.5c.5,0,.5.1.6.7h.5V36.7h-.5c-.1.6-.2.7-.6.7h-.5V35.9l1.4-.1Z" fill="#fff"/>
            <path id="Path_9" data-name="Path 9" d="M143,47.6a2.022,2.022,0,0,0,2.1-2h-.6a1.43,1.43,0,0,1-1.4,1.4c-.9,0-1.4-.7-1.4-1.9,0-1.4.5-1.9,1.3-1.9.6,0,1,.5,1.4,1.4h.5V42.8h-.5l-.1.5a1.728,1.728,0,0,0-1.3-.5,2.362,2.362,0,0,0-2.2,2.5A2.182,2.182,0,0,0,143,47.6Z" fill="#fff"/>
            <path id="Path_10" data-name="Path 10" d="M150.8,43.4v-.6h-2.3v.6h.7v1.4h-2V43.4h.6v-.6h-2.3v.6h.8V47h-.8v.5h2.3V47h-.6V45.3h2V47h-.7v.5h2.3V47h-.7V43.4Z" fill="#fff"/>
            <path id="Path_11" data-name="Path 11" d="M151.1,45.2a2.232,2.232,0,0,0,2.3,2.4,2.317,2.317,0,0,0,2.3-2.5,2.288,2.288,0,0,0-2.3-2.4A2.376,2.376,0,0,0,151.1,45.2Zm3.7,0c0,1.3-.5,1.9-1.3,1.9-.9,0-1.3-.7-1.3-1.9s.5-1.9,1.3-1.9C154.3,43.2,154.8,43.9,154.8,45.2Z" fill="#fff"/>
            <path id="Path_12" data-name="Path 12" d="M158.4,45.6c1.5,0,2-.7,2-1.4,0-.8-.5-1.4-2-1.4h-2.2v.5h.7V47h-.7v.5h2.4V47h-.8V45.7l.6-.1Zm-.6-2.2h.5c.8,0,1,.4,1,.9,0,.6-.2.9-1,.9h-.5Z" fill="#fff"/>
            <path id="Path_13" data-name="Path 13" d="M162.8,45.6c1.5,0,2-.7,2-1.4,0-.8-.5-1.4-2-1.4h-2.2v.5h.7V47h-.7v.5H163V47h-.8V45.7l.6-.1Zm-.5-2.2h.5c.8,0,1,.4,1,.9,0,.6-.2.9-1,.9h-.5Z" fill="#fff"/>
            <path id="Path_14" data-name="Path 14" d="M169.4,45.8h-.5c-.2,1-.3,1.2-1,1.2h-1.3V45.4h.5c.5,0,.5.1.6.7h.5V44.2h-.5c-.1.6-.2.7-.6.7h-.5V43.4h1.3c.6,0,.6.2.9,1.1h.5V42.9H165v.5h.7V47H165v.5h4.3V45.8Z" fill="#fff"/>
            <path id="Path_15" data-name="Path 15" d="M174.2,47c-.1,0-.2-.1-.2-.3v-.4c0-.5-.3-.9-1.1-1v-.1c1-.1,1.3-.6,1.3-1.1,0-.6-.4-1.2-1.8-1.2H170v.5h.7V47H170v.5h2.4V47h-.7V45.5h.7c.6,0,.7.2.7.7v.4a.906.906,0,0,0,1.8.2l-.4-.1Q174.35,47,174.2,47Zm-2-2h-.7V43.4h.8c.6,0,.8.3.8.8S172.9,45,172.2,45Z" fill="#fff"/>
            <rect id="Rectangle_1" data-name="Rectangle 1" width="33.2" height="0.4" transform="translate(140.9 31.3)" fill="#fff"/>
            <rect id="Rectangle_2" data-name="Rectangle 2" width="33.2" height="0.4" transform="translate(140.9 50.9)" fill="#fff"/>
            <path id="Path_16" data-name="Path 16" d="M208.4,11.5c.1.1.5,0,.5-.6,0-.5.8-.6,2.6-1.2,1.8-.7,4.6-2.8,4.9-4.9s-.5-3.7-1-4c-.2-.1-.2-.1-.3-.1a.3.3,0,0,0-.2.5.851.851,0,0,1,.2,1.2c-.1.3-.5.6-2.4,1.5s-3.6,1.8-4.6,4.1A3.1,3.1,0,0,0,208.4,11.5Z" fill="#fff"/>
            <path id="Path_17" data-name="Path 17" d="M218.4,22.8h-.7c-.1.5-.5.6-1,.6-1.2,0-2.7-.7-4.3-.7a5.57,5.57,0,0,0-4.3,1.5h0c.4-2.2,3.5-3.3,5.4-3.6,2.2-.4,4.9-1.5,4.8-4.2-.1-2.6-2.8-4-6.4-4-2,0-5.1.8-5,3.3V16c-.2-.3-.5-.5-.7-.8a8.773,8.773,0,0,0-5.9-2h-.5a8.569,8.569,0,0,0,4.5-1.4,4.725,4.725,0,0,0,2-4.1,6.076,6.076,0,0,0-2.5-5.1A8.021,8.021,0,0,0,198.6.8a6.253,6.253,0,0,0-4.7,1.8,4.975,4.975,0,0,0-1.5,3.7,4.764,4.764,0,0,0,.9,2.9,2.908,2.908,0,0,0,2.5,1.2,2.64,2.64,0,0,0,1.9-.7,2.583,2.583,0,0,0,.9-2.1,2.172,2.172,0,0,0-.8-1.8c-.5-.3-1-.7-1.5-1a1.9,1.9,0,0,1-.8-1.5,1.763,1.763,0,0,1,.9-1.5,3.786,3.786,0,0,1,2.2-.5A2.81,2.81,0,0,1,201,2.7a9.654,9.654,0,0,1,1.1,5.1q0,5.4-3.6,5.4h-.4v.4h.4a4.277,4.277,0,0,1,3.6,1.8,6.576,6.576,0,0,1,1.3,4.2,7.6,7.6,0,0,1-1.6,4.9c-1.2,1.5-4.6,2.3-6.8,2.3a8.855,8.855,0,0,1-5.5-1.8,5.752,5.752,0,0,1-2.6-5,5.24,5.24,0,0,1,1.8-3.7,6.88,6.88,0,0,1,5-1.9c1.9,0,4,.8,4.5,2.9.2.8-.1,1.4-.8,1.5a1.749,1.749,0,0,1-1.8-1.1,2.5,2.5,0,0,0-2.5-1.6,2.57,2.57,0,0,0-2.7,2.7,3.174,3.174,0,0,0,1,2.5,5.134,5.134,0,0,0,2.4,1c2.3.4,7.1-1.4,5.7-5.8-1-3.2-5-4.2-8.3-3.1V3.3L189,1.1H177.5v26l-6.1-26h-4.3l-6.1,26V1.1h-5.5l-4.4,12.5L146.7,1.1h-5.5V27.7h4.4V9.7l4.3,12.2h2.3l4.3-12.2V27.6h8.9l1.2-5.7h5.5l1.2,5.7h4.4V51.3H182V45.8l1.7-3.1,3.7,8.6h15.4V47h-7.5V41h5.6V36.7h-5.6V31.1h11V51.3h4.4V31.2h4.4V26.9H215C216.8,26.6,218.1,25.2,218.4,22.8Zm-51.2-5.2,1.9-9,1.9,9ZM181.8,5.4h4.3l.5.5v6.6l-.6.5h-4.3V5.4Zm-.2,31.9V27.7h0V17.3h2.8l2.2,10.3Zm8.9,10.9L186,37.7l4.5-8.3Zm6.7-21.3c3.2-.2,6.7-1,8.5-2.4a6.122,6.122,0,0,0,2.6-5,4.638,4.638,0,0,0-.4-2.1,2.45,2.45,0,0,0,1.2.4,1.87,1.87,0,0,0,2.1-2c-.1-1.6-1.8-1.6-1.8-2.2,0-.5,1-.7,1.4-.7,1.5,0,2.2,1.1,2.3,2.6.2,4.9-7,5.6-6.8,11.4Zm9.9,0a.955.955,0,0,1,1.1-.9c1,0,2.6.7,4.6.9Z" fill="#fff"/>
          </g>
        </g>
      </g>
      <g id="Price_Chopper" data-name="Price Chopper">
        <g id="Group_5" data-name="Group 5">
          <path id="Path_18" data-name="Path 18" d="M112.5,45.7a1.5,1.5,0,0,1-1.6,1.5,1.561,1.561,0,0,1-1.6-1.5,1.5,1.5,0,0,1,1.6-1.5A1.561,1.561,0,0,1,112.5,45.7Zm-2.7,0a1.2,1.2,0,1,0,1.2-1.2A1.155,1.155,0,0,0,109.8,45.7Zm.9.8h-.4V45h.6c.3,0,.4,0,.5.1a.367.367,0,0,1,.1.3c0,.2-.1.3-.3.4h0a1.381,1.381,0,0,1,.3.4c0,.2.1.3.1.4h-.4c0-.1-.1-.2-.1-.4s-.1-.2-.3-.2h-.2l.1.5Zm0-.9h.2c.2,0,.4-.1.4-.2s-.1-.2-.3-.2h-.2l-.1.4Z" fill="#fff"/>
        </g>
        <path id="Path_19" data-name="Path 19" d="M0,37.4C0,44,5.7,47.7,10.7,47.7a8.2,8.2,0,0,0,4.1-.9V40.2a5.612,5.612,0,0,1-3.5,1,3.885,3.885,0,0,1-4.1-3.9c0-2.5,1.6-4.2,4.4-4.2a6.9,6.9,0,0,1,3.5.8V27.7a7.986,7.986,0,0,0-4.5-1A10.613,10.613,0,0,0,0,37.4Z" fill="#fff"/>
        <path id="Path_20" data-name="Path 20" d="M15.8,27.7V47.2h6.3V39.8A1.649,1.649,0,0,1,23.8,38a1.206,1.206,0,0,1,1.3,1.3v7.9h6.5V37.3c0-2.6-1.5-4.4-4.7-4.4a9.552,9.552,0,0,0-4.5,1.4V27.6H15.8Z" fill="#fff"/>
        <path id="Path_21" data-name="Path 21" d="M48.7,40.6c0,4-3.5,7.5-8.3,7.5-5,0-8.3-3.7-8.4-7.5v-.2c0-3.9,3.7-7.5,8.4-7.5h0c5.1,0,8.3,3.5,8.3,7.4Zm-6.2,0h0a2.031,2.031,0,0,0-2-2.3,2.153,2.153,0,0,0-2.1,2.3v.1a2.042,2.042,0,0,0,1.9,2.2A2.382,2.382,0,0,0,42.5,40.6Z" fill="#fff"/>
        <path id="Path_22" data-name="Path 22" d="M56.3,27.2V32h-7V12h10c3.9,0,6.9,2.4,6.9,7h0c0,3.9-2.1,6.9-6.2,6.9H56.3v1.3m2.9-8.1h0c0-1-.3-1.8-1.3-1.8H56.6V21h1A1.769,1.769,0,0,0,59.2,19.1Z" fill="#fff"/>
        <path id="Path_23" data-name="Path 23" d="M73.1,31.9V28.2c0-2.4.2-4.3,3-4.8H77V18.1a4,4,0,0,0-3.3,1.5l-.4.2h-.1L73,18.2H66.5V32l6.6-.1Z" fill="#fff"/>
        <rect id="Rectangle_3" data-name="Rectangle 3" width="6.7" height="13.8" transform="translate(77.7 18.2)" fill="#fff"/>
        <path id="Path_24" data-name="Path 24" d="M85,25.2c0,4.9,4.5,7.5,7.4,7.5a6.011,6.011,0,0,0,4.1-1.5c0-1.3-.1-3.5-.1-4.3a3.176,3.176,0,0,1-2,.8,2.632,2.632,0,0,1-2.9-2.5,2.547,2.547,0,0,1,2.8-2.5,3.576,3.576,0,0,1,1.9.4c.2-1.5.4-3.5.5-4.3a7.508,7.508,0,0,0-3.7-.9C88.9,17.9,85,21.2,85,25.2Z" fill="#fff"/>
        <path id="Path_25" data-name="Path 25" d="M107.5,47.1V43.4c0-2.4.2-4.4,3-4.8a6.7,6.7,0,0,1,1.7-.1V33.2c-1.8,0-2.9.2-3.8,1l-.7.7h-.2l-.2-1.5H101V47l6.5.1Z" fill="#fff"/>
        <path id="Path_26" data-name="Path 26" d="M99.9,37.9a6.562,6.562,0,0,1,.4,2.3,7.772,7.772,0,0,1-.2,1.6h-10c0,1.5.4,2.2,1.7,2.2.9,0,1.8-.3,1.9-.8h6.1c-.7,2.9-4.3,4.9-8,4.9-5,0-8.1-3-8.1-7.5h0a8.675,8.675,0,0,1,.5-2.8,8.4,8.4,0,0,1,8-4.9C96.9,32.9,99.1,35.5,99.9,37.9Zm-6.2,0a1.542,1.542,0,0,0-1.4-1c-1,0-1.6.4-1.8,1a2.959,2.959,0,0,0-.2,1H94C93.9,38.6,93.8,38.2,93.7,37.9Z" fill="#fff"/>
        <path id="Path_27" data-name="Path 27" d="M66,40.5c0,4.9-3.1,7.3-6.4,7.3a4.426,4.426,0,0,1-4-1.9v5.3H49.3V33.3h6.3l.3.8a6.853,6.853,0,0,1,3.8-1.2c2.9,0,6.2,2.4,6.2,7.1A.9.9,0,0,1,66,40.5Zm-10.6,0h0a2.051,2.051,0,0,0,2.1,2.1,2.094,2.094,0,0,0,2-2.1h0a2.022,2.022,0,0,0-2-2.1,2.112,2.112,0,0,0-2.1,2.1" fill="#fff"/>
        <path id="Path_28" data-name="Path 28" d="M83.3,40.5c0,4.9-3.3,7.3-6.5,7.3a4.552,4.552,0,0,1-4-1.9v5.3H66.5V33.3h6.4l.4.8a6.339,6.339,0,0,1,3.8-1.2c2.9,0,6.2,2.4,6.2,7.1Zm-10.5,0a2,2,0,0,0,4,0h0a2,2,0,0,0-4,0h0" fill="#fff"/>
        <path id="Path_29" data-name="Path 29" d="M74.6,10.5l-3-6.8L42.4,3.5,42.1,1H30.9l.2,2.2-.6.1.2,3.6.6.1.4,7.6L22,11.2a13.813,13.813,0,0,0-2,7.3c0,5.3,5,13.6,13.9,13.6,9.1,0,14.3-8,14.3-14.4,0-3.1-1.7-7-5.2-10.6C48.4,6.7,69.6,9.8,74.6,10.5Zm-34-7.1L40,17.2l-6-2.1L33.3,3.4ZM22.7,15.8,22,14.1l1.8,1,1.7-1.2-.3,1.9L27,17.1l-2.1.2-.7,2.1-.8-1.9H21.3Zm5,9.4-2-.6-1.3,1.6-.1-2.1-2-.6,2.2-.9.2-2,1.1,1.6,2.1-.4-1.2,1.7Zm4.5,3.3-.1,2.2L30.8,29l-2,.4,1.1-1.6-1-1.7,1.9.5L32.1,25l.1,2,2,.9Zm7.4-.4-.8,1.8L38.2,28l-2-.4,1.6-1.2-.3-2,1.6,1.3,1.9-.9-.8,1.9,1.5,1.5Zm5.6-4.2-1.5-1.3-1.9.9.7-1.8-1.4-1.4h2.1l.9-1.9.7,2,2,.2L45,21.7ZM43.8,12.5l1.5-1.3-.2,2.1,1.6,1.3-2,.2L44,16.6,43.2,15h-2l1.3-1.4-.7-1.9Z" fill="#fff"/>
        <path id="Path_30" data-name="Path 30" d="M96.6,25.3h0a8.675,8.675,0,0,1,.5-2.8,8.4,8.4,0,0,1,8-4.9c4.7,0,6.9,2.6,7.7,4.9a6.429,6.429,0,0,1,.4,2.2,8.083,8.083,0,0,1-.1,1.6h-10a1.949,1.949,0,0,0,.1.8,1.632,1.632,0,0,0,1.7,1.4,2.034,2.034,0,0,0,1.8-.7h6.1c-.6,3-4.3,4.9-8,4.9-4.2,0-7.1-2.2-7.9-5.5A6.279,6.279,0,0,1,96.6,25.3Zm9.9-2.8a1.635,1.635,0,0,0-1.4-1.1,1.945,1.945,0,0,0-1.8,1.1,3.81,3.81,0,0,0-.3,1h3.7A1.363,1.363,0,0,0,106.5,22.5Z" fill="#fff"/>
      </g>
    </g>
  </g>
</svg>
